<?xml version="1.0" standalone="no"?>
<!DOCTYPE svg PUBLIC "-//W3C//DTD SVG 20010904//EN"
 "http://www.w3.org/TR/2001/REC-SVG-20010904/DTD/svg10.dtd">
<svg version="1.0" xmlns="http://www.w3.org/2000/svg"
 width="200.000000pt" height="200.000000pt" viewBox="0 0 200.000000 200.000000"
 preserveAspectRatio="xMidYMid meet">
<metadata>
Created by potrace 1.11, written by Peter Selinger 2001-2013
</metadata>
<g transform="translate(0.000000,200.000000) scale(0.100000,-0.100000)"
fill="#000000" stroke="none">
<path d="M806 1910 c-116 -45 -196 -134 -232 -256 -21 -73 -14 -182 15 -249
27 -62 26 -91 -4 -151 -14 -27 -25 -50 -25 -51 0 -8 52 -1 102 12 57 14 57 14
124 -17 l66 -31 -6 -43 c-8 -64 -40 -147 -76 -199 -29 -42 -112 -117 -142
-128 -40 -14 36 -17 377 -15 l378 3 -51 33 c-109 71 -172 178 -172 295 0 87
10 115 69 188 69 85 93 152 93 254 0 117 -26 180 -112 265 -86 87 -144 110
-268 110 -61 -1 -102 -7 -136 -20z m214 -159 c0 -4 -38 -44 -85 -91 l-85 -85
0 86 c0 47 2 88 5 90 7 8 165 7 165 0z m200 -193 c0 -25 -48 -113 -72 -136
l-25 -23 -51 48 -50 48 91 37 c104 42 107 43 107 26z m-291 -34 c34 -15 61
-29 61 -33 0 -3 -9 -30 -20 -59 -11 -29 -20 -57 -20 -63 0 -7 30 -10 87 -8
l88 3 23 -42 23 -42 -20 -55 c-27 -71 -27 -163 -2 -238 17 -49 35 -80 100
-168 13 -18 6 -19 -248 -19 l-262 0 39 48 c50 59 96 151 112 222 18 83 12 102
-36 120 -41 15 -41 15 -20 32 20 15 20 18 4 34 -15 16 -18 15 -50 -4 -21 -13
-38 -18 -48 -12 -9 4 -41 1 -78 -7 -34 -9 -65 -14 -67 -11 -3 3 3 20 12 39 10
19 18 55 18 81 0 41 2 45 18 37 9 -6 21 -8 25 -5 5 3 20 7 34 10 34 6 73 32
92 61 21 32 20 46 -1 38 -11 -3 -4 9 16 30 19 21 40 37 47 37 7 0 40 -12 73
-26z m-269 -20 c39 -8 72 -19 75 -23 2 -5 -18 -11 -45 -14 -60 -7 -78 -16 -59
-28 11 -7 11 -9 1 -9 -7 0 -10 -4 -7 -10 3 -5 0 -10 -8 -10 -13 0 -37 65 -37
99 0 14 -2 14 80 -5z m625 -16 c-14 -62 -82 -158 -112 -158 -21 0 -16 10 36
64 26 29 54 69 62 89 16 45 23 48 14 5z m-549 -47 c-3 -5 -19 -14 -36 -19 -27
-10 -30 -9 -30 9 0 15 7 19 36 19 19 0 33 -4 30 -9z m74 -211 c-8 -5 -19 -10
-25 -10 -5 0 -3 5 5 10 8 5 20 10 25 10 6 0 3 -5 -5 -10z"/>
<path d="M911 1691 c-23 -22 -38 -42 -33 -45 5 -3 28 15 52 39 54 55 38 60
-19 6z"/>
<path d="M1092 1485 c-11 -12 -10 -15 3 -15 8 0 15 4 15 9 0 5 8 12 18 14 14
4 14 5 -3 5 -11 1 -26 -5 -33 -13z"/>
<path d="M1133 1473 c9 -2 23 -2 30 0 6 3 -1 5 -18 5 -16 0 -22 -2 -12 -5z"/>
<path d="M1244 1005 c-4 -9 -2 -21 4 -27 16 -16 47 -5 47 17 0 26 -42 34 -51
10z"/>
<path d="M1276 577 c-9 -7 -41 -73 -71 -147 l-54 -135 0 120 c-1 150 -10 168
-79 163 -52 -3 -62 -16 -84 -98 l-11 -45 -19 59 c-10 33 -23 65 -29 73 -14 16
-91 17 -107 1 -17 -17 -17 -309 0 -326 15 -15 51 -15 66 0 7 7 12 30 13 53 l1
40 10 -35 c12 -44 35 -70 62 -70 33 0 46 14 61 61 l14 44 0 -40 c1 -23 6 -46
13 -53 19 -19 55 -14 72 9 l14 21 11 -21 c8 -14 21 -21 42 -21 26 0 33 6 46
40 16 39 17 40 64 40 45 0 48 -2 66 -37 22 -46 59 -55 88 -23 18 20 17 23 -36
157 -29 75 -62 147 -72 159 -20 26 -54 31 -81 11z m53 -179 c1 -5 -6 -8 -14
-8 -15 0 -21 31 -8 44 7 6 20 -17 22 -36z"/>
<path d="M1563 583 c-40 -8 -83 -60 -83 -100 0 -48 51 -100 108 -109 23 -4 50
-12 59 -20 17 -12 17 -14 1 -30 -21 -21 -64 -12 -73 16 -10 32 -50 54 -74 41
-45 -25 -29 -94 32 -131 40 -25 116 -26 163 -4 65 31 83 109 38 164 -23 27
-25 33 -12 43 23 19 27 40 13 73 -21 50 -90 73 -172 57z m67 -83 c11 -6 24
-19 30 -29 9 -18 7 -19 -28 -9 -47 13 -62 26 -42 38 19 12 17 12 40 0z"/>
<path d="M227 574 c-4 -4 -7 -61 -7 -126 0 -179 26 -220 139 -222 66 -1 101
17 132 67 17 28 19 47 17 157 l-3 125 -45 0 -45 0 -5 -120 c-3 -66 -9 -126
-13 -132 -5 -7 -19 -13 -32 -13 -13 0 -27 6 -32 13 -4 6 -10 66 -13 132 l-5
120 -40 3 c-23 2 -44 0 -48 -4z"/>
<path d="M343 461 c1 -89 6 -126 15 -129 19 -6 17 208 -3 234 -13 17 -15 7
-12 -105z"/>
<path d="M530 556 c0 -22 3 -27 11 -19 8 8 8 16 0 30 -9 16 -10 14 -11 -11z"/>
<path d="M615 566 c-63 -28 -95 -85 -95 -167 0 -126 79 -188 214 -168 55 9 67
21 64 64 -3 30 -3 30 -57 27 -29 -2 -64 -1 -77 2 -42 11 -52 107 -15 149 12
15 27 18 81 15 l65 -3 3 35 c3 24 -2 38 -14 47 -23 17 -130 16 -169 -1z"/>
<path d="M1417 488 c34 -89 53 -125 53 -101 0 17 -71 182 -80 188 -5 3 7 -36
27 -87z"/>
<path d="M960 558 c0 -7 5 -20 10 -28 8 -12 10 -11 10 7 0 12 -4 25 -10 28 -5
3 -10 0 -10 -7z"/>
<path d="M1164 541 c3 -18 6 -57 7 -85 0 -45 2 -48 10 -26 13 30 4 119 -12
134 -9 8 -10 3 -5 -23z"/>
<path d="M1761 522 c8 -24 7 -37 -5 -60 -13 -26 -13 -30 2 -46 12 -11 17 -33
17 -71 0 -43 -5 -59 -25 -80 -51 -56 -152 -72 -221 -37 -35 18 -37 18 -60 -1
-17 -14 -33 -17 -59 -13 -32 5 -34 4 -16 -9 26 -20 75 -19 97 1 17 15 21 15
53 0 42 -20 137 -21 174 -2 72 38 101 118 67 189 -13 28 -14 40 -5 57 13 25 5
73 -16 90 -12 10 -12 8 -3 -18z"/>
<path d="M663 459 c-17 -22 -24 -55 -17 -83 9 -39 24 -31 24 13 0 52 18 65 77
56 35 -5 45 -4 37 4 -17 19 -108 26 -121 10z"/>
<path d="M1595 340 c3 -5 15 -10 26 -10 11 0 17 5 14 10 -3 6 -15 10 -26 10
-11 0 -17 -4 -14 -10z"/>
<path d="M497 265 c-10 -14 -32 -32 -49 -41 -39 -20 -137 -20 -180 1 l-33 16
23 -20 c61 -53 180 -51 242 5 l37 34 19 -21 c31 -34 73 -51 128 -51 143 0 222
5 234 14 9 8 16 8 24 0 15 -15 80 -16 95 -1 7 7 17 8 30 1 10 -6 57 -10 103
-9 l85 2 24 38 c17 25 32 37 48 37 13 0 23 5 23 10 0 6 -18 10 -40 10 -27 0
-40 -4 -40 -14 0 -7 -9 -25 -21 -40 -22 -28 -66 -35 -87 -14 -9 9 -15 9 -24 0
-16 -16 -59 -15 -85 3 -18 13 -22 13 -33 0 -16 -19 -60 -19 -85 -1 -16 11 -22
11 -46 -3 -23 -13 -33 -14 -59 -4 -21 8 -40 9 -56 2 -37 -14 -140 -11 -178 5
-18 7 -42 25 -53 40 -12 14 -22 26 -24 26 -2 0 -12 -12 -22 -25z"/>
</g>
</svg>
